<svg width="50" height="50" viewBox="0 0 50 50" fill="none" xmlns="http://www.w3.org/2000/svg">
<rect width="50" height="50" rx="10" fill="#D7385E"/>
<path d="M32.7376 10.0348C33.3392 10.0348 33.8483 10.1858 34.2649 10.4878C34.6814 10.7666 34.8897 11.115 34.8897 11.5331C34.8897 12.2764 34.6583 12.8804 34.1955 13.345C33.7326 13.7863 33.0731 14.007 32.2169 14.007C30.8747 14.007 29.8565 14.0186 29.1623 14.0418C29.116 14.3206 28.9077 15.5749 28.5375 17.8049C28.1209 20.2904 27.8664 21.8118 27.7738 22.3693L27.0449 26.9338C26.5358 30.3484 26.1308 33.2056 25.83 35.5052C26.3159 35.482 26.9755 35.4704 27.8085 35.4704C29.035 35.4704 29.8681 35.633 30.3078 35.9582C30.7474 36.2834 30.9673 36.7712 30.9673 37.4216C30.9673 38.0255 30.7243 38.5366 30.2383 38.9547C29.7755 39.3728 29.116 39.5819 28.2598 39.5819C27.6813 39.5819 26.7672 39.5586 25.5176 39.5122C24.3605 39.4657 23.5969 39.4425 23.2266 39.4425C21.7687 39.4425 20.172 39.5703 18.4364 39.8258C17.6728 39.9419 17.129 40 16.805 40C16.2959 40 15.8678 39.8606 15.5207 39.5819C15.1736 39.3031 15 38.8966 15 38.3624C15 37.5261 15.3703 36.8757 16.1108 36.4112C16.8513 35.9466 17.8926 35.7027 19.2348 35.6794L20.8662 35.6446L20.9704 34.8781C21.5258 31.1614 21.9307 28.5366 22.1853 27.0035L22.9489 22.439C23.4118 19.7445 23.8283 16.9686 24.1985 14.1115L21.2828 14.1463C20.4497 14.1463 19.8712 14.0186 19.5472 13.7631C19.2464 13.4843 19.096 13.101 19.096 12.6132C19.096 11.0337 20.2299 10.1858 22.4977 10.0697C23.5622 10.0232 24.8581 10 26.3854 10L32.7376 10.0348Z" fill="white"/>
</svg>
